<mxfile host="65bd71144e" pages="2">
    <diagram id="iVCV8c_n-IDJTUh82lyV" name="1">
        <mxGraphModel dx="1054" dy="572" grid="1" gridSize="12" guides="1" tooltips="1" connect="1" arrows="1" fold="1" page="1" pageScale="1" pageWidth="827" pageHeight="1169" math="0" shadow="0">
            <root>
                <mxCell id="yRL_w-rilmJEEYFCG5Zv-0"/>
                <mxCell id="yRL_w-rilmJEEYFCG5Zv-1" parent="yRL_w-rilmJEEYFCG5Zv-0"/>
                <mxCell id="6p2l0NedLXFauI8QSVoH-1" style="edgeStyle=orthogonalEdgeStyle;rounded=0;orthogonalLoop=1;jettySize=auto;html=1;endArrow=none;endFill=0;" parent="yRL_w-rilmJEEYFCG5Zv-1" source="zKV1meTTPXCELRMhHmND-0" target="6p2l0NedLXFauI8QSVoH-0" edge="1">
                    <mxGeometry relative="1" as="geometry"/>
                </mxCell>
                <mxCell id="zKV1meTTPXCELRMhHmND-0" value="start" style="strokeWidth=2;html=1;shape=mxgraph.flowchart.start_2;whiteSpace=wrap;" parent="yRL_w-rilmJEEYFCG5Zv-1" vertex="1">
                    <mxGeometry x="364" y="50" width="100" height="34" as="geometry"/>
                </mxCell>
                <mxCell id="SK6nowxIVZ9VQCwwzC3w-1" style="edgeStyle=orthogonalEdgeStyle;rounded=0;orthogonalLoop=1;jettySize=auto;html=1;endArrow=none;endFill=0;" parent="yRL_w-rilmJEEYFCG5Zv-1" source="6p2l0NedLXFauI8QSVoH-0" target="SK6nowxIVZ9VQCwwzC3w-0" edge="1">
                    <mxGeometry relative="1" as="geometry"/>
                </mxCell>
                <mxCell id="6p2l0NedLXFauI8QSVoH-0" value="x, y, z є R" style="shape=parallelogram;html=1;strokeWidth=2;perimeter=parallelogramPerimeter;whiteSpace=wrap;rounded=1;arcSize=12;size=0.23;" parent="yRL_w-rilmJEEYFCG5Zv-1" vertex="1">
                    <mxGeometry x="308" y="108" width="211" height="36" as="geometry"/>
                </mxCell>
                <mxCell id="bgdBPvUKLODAhsdqj8l2-1" style="edgeStyle=orthogonalEdgeStyle;rounded=0;orthogonalLoop=1;jettySize=auto;html=1;entryX=0.5;entryY=0;entryDx=0;entryDy=0;endArrow=none;endFill=0;" parent="yRL_w-rilmJEEYFCG5Zv-1" source="SK6nowxIVZ9VQCwwzC3w-0" target="bgdBPvUKLODAhsdqj8l2-0" edge="1">
                    <mxGeometry relative="1" as="geometry"/>
                </mxCell>
                <mxCell id="SK6nowxIVZ9VQCwwzC3w-0" value="&lt;div&gt;a = cos(x + ( x&amp;nbsp; *&amp;nbsp; y) / z);&lt;/div&gt;&lt;div&gt;&lt;span&gt;b = x*x*x / cos(a);&lt;/span&gt;&lt;/div&gt;" style="rounded=1;whiteSpace=wrap;html=1;absoluteArcSize=1;arcSize=14;strokeWidth=2;" parent="yRL_w-rilmJEEYFCG5Zv-1" vertex="1">
                    <mxGeometry x="287" y="180" width="254" height="48" as="geometry"/>
                </mxCell>
                <mxCell id="CFPVD5LUz7gqfMzHKqu--2" style="edgeStyle=orthogonalEdgeStyle;rounded=0;orthogonalLoop=1;jettySize=auto;html=1;endArrow=none;endFill=0;" parent="yRL_w-rilmJEEYFCG5Zv-1" source="bgdBPvUKLODAhsdqj8l2-0" target="CFPVD5LUz7gqfMzHKqu--0" edge="1">
                    <mxGeometry relative="1" as="geometry"/>
                </mxCell>
                <mxCell id="bgdBPvUKLODAhsdqj8l2-0" value="a&lt;br&gt;b" style="shape=parallelogram;html=1;strokeWidth=2;perimeter=parallelogramPerimeter;whiteSpace=wrap;rounded=1;arcSize=12;size=0.23;" parent="yRL_w-rilmJEEYFCG5Zv-1" vertex="1">
                    <mxGeometry x="346" y="264" width="136" height="36" as="geometry"/>
                </mxCell>
                <mxCell id="CFPVD5LUz7gqfMzHKqu--0" value="end" style="strokeWidth=2;html=1;shape=mxgraph.flowchart.start_2;whiteSpace=wrap;" parent="yRL_w-rilmJEEYFCG5Zv-1" vertex="1">
                    <mxGeometry x="364" y="324" width="100" height="48" as="geometry"/>
                </mxCell>
            </root>
        </mxGraphModel>
    </diagram>
    <diagram id="uD6qPF2xMzjwv3aDja7C" name="2">
        <mxGraphModel dx="1054" dy="572" grid="1" gridSize="12" guides="1" tooltips="1" connect="1" arrows="1" fold="1" page="1" pageScale="1" pageWidth="827" pageHeight="1169" math="0" shadow="0">
            <root>
                <mxCell id="0"/>
                <mxCell id="1" parent="0"/>
                <mxCell id="jIApgbNa99BO5ht_V9BN-3" style="edgeStyle=orthogonalEdgeStyle;rounded=0;orthogonalLoop=1;jettySize=auto;html=1;entryX=0.5;entryY=0;entryDx=0;entryDy=0;endArrow=none;endFill=0;" parent="1" source="jIApgbNa99BO5ht_V9BN-1" target="jIApgbNa99BO5ht_V9BN-2" edge="1">
                    <mxGeometry relative="1" as="geometry"/>
                </mxCell>
                <mxCell id="jIApgbNa99BO5ht_V9BN-1" value="start" style="strokeWidth=2;html=1;shape=mxgraph.flowchart.start_2;whiteSpace=wrap;" parent="1" vertex="1">
                    <mxGeometry x="350" y="50" width="100" height="34" as="geometry"/>
                </mxCell>
                <mxCell id="jIApgbNa99BO5ht_V9BN-5" style="edgeStyle=orthogonalEdgeStyle;rounded=0;orthogonalLoop=1;jettySize=auto;html=1;endArrow=none;endFill=0;" parent="1" source="jIApgbNa99BO5ht_V9BN-2" target="jIApgbNa99BO5ht_V9BN-4" edge="1">
                    <mxGeometry relative="1" as="geometry"/>
                </mxCell>
                <mxCell id="jIApgbNa99BO5ht_V9BN-2" value="d1, d2, m1, m2, y1 ,y2 є N" style="shape=parallelogram;html=1;strokeWidth=2;perimeter=parallelogramPerimeter;whiteSpace=wrap;rounded=1;arcSize=12;size=0.23;" parent="1" vertex="1">
                    <mxGeometry x="294.5" y="108" width="211" height="36" as="geometry"/>
                </mxCell>
                <mxCell id="jIApgbNa99BO5ht_V9BN-7" style="edgeStyle=orthogonalEdgeStyle;rounded=0;orthogonalLoop=1;jettySize=auto;html=1;entryX=0.5;entryY=0;entryDx=0;entryDy=0;endArrow=none;endFill=0;" parent="1" source="jIApgbNa99BO5ht_V9BN-4" target="jIApgbNa99BO5ht_V9BN-6" edge="1">
                    <mxGeometry relative="1" as="geometry"/>
                </mxCell>
                <mxCell id="jIApgbNa99BO5ht_V9BN-4" value="&lt;div&gt;mass21 = {0, 31, 59, 90, 120, 151, 181, 212, 243, 273, 304, 334}&lt;/div&gt;&lt;div&gt;&lt;span&gt;mass22 = {0, 31, 60, 91, 121, 152, 182, 213, 244, 274, 305, 335}&lt;/span&gt;&lt;/div&gt;" style="rounded=1;whiteSpace=wrap;html=1;absoluteArcSize=1;arcSize=14;strokeWidth=2;" parent="1" vertex="1">
                    <mxGeometry x="155" y="180" width="490" height="48" as="geometry"/>
                </mxCell>
                <mxCell id="jIApgbNa99BO5ht_V9BN-9" style="edgeStyle=orthogonalEdgeStyle;rounded=0;orthogonalLoop=1;jettySize=auto;html=1;endArrow=none;endFill=0;" parent="1" source="jIApgbNa99BO5ht_V9BN-6" target="jIApgbNa99BO5ht_V9BN-8" edge="1">
                    <mxGeometry relative="1" as="geometry"/>
                </mxCell>
                <mxCell id="jIApgbNa99BO5ht_V9BN-6" value="&lt;div&gt;t1 = d1&lt;/div&gt;&lt;div&gt;&lt;span&gt;t2 = d2&lt;/span&gt;&lt;/div&gt;" style="rounded=1;whiteSpace=wrap;html=1;absoluteArcSize=1;arcSize=14;strokeWidth=2;" parent="1" vertex="1">
                    <mxGeometry x="344.75" y="252" width="110.5" height="48" as="geometry"/>
                </mxCell>
                <mxCell id="jIApgbNa99BO5ht_V9BN-11" value="True" style="edgeStyle=orthogonalEdgeStyle;rounded=0;orthogonalLoop=1;jettySize=auto;html=1;exitX=1;exitY=0.5;exitDx=0;exitDy=0;exitPerimeter=0;entryX=0.5;entryY=0;entryDx=0;entryDy=0;entryPerimeter=0;endArrow=none;endFill=0;" parent="1" source="jIApgbNa99BO5ht_V9BN-8" target="jIApgbNa99BO5ht_V9BN-10" edge="1">
                    <mxGeometry x="-0.5598" y="18" relative="1" as="geometry">
                        <mxPoint as="offset"/>
                    </mxGeometry>
                </mxCell>
                <mxCell id="jIApgbNa99BO5ht_V9BN-19" style="edgeStyle=orthogonalEdgeStyle;rounded=0;orthogonalLoop=1;jettySize=auto;html=1;endArrow=none;endFill=0;" parent="1" source="jIApgbNa99BO5ht_V9BN-8" target="jIApgbNa99BO5ht_V9BN-16" edge="1">
                    <mxGeometry relative="1" as="geometry"/>
                </mxCell>
                <mxCell id="jIApgbNa99BO5ht_V9BN-8" value="y1 mod 4 == 0" style="strokeWidth=2;html=1;shape=mxgraph.flowchart.decision;whiteSpace=wrap;" parent="1" vertex="1">
                    <mxGeometry x="336.5" y="336" width="127" height="60" as="geometry"/>
                </mxCell>
                <mxCell id="jIApgbNa99BO5ht_V9BN-13" style="edgeStyle=orthogonalEdgeStyle;rounded=0;orthogonalLoop=1;jettySize=auto;html=1;entryX=0.5;entryY=0;entryDx=0;entryDy=0;endArrow=none;endFill=0;" parent="1" source="jIApgbNa99BO5ht_V9BN-10" target="jIApgbNa99BO5ht_V9BN-12" edge="1">
                    <mxGeometry relative="1" as="geometry"/>
                </mxCell>
                <mxCell id="jIApgbNa99BO5ht_V9BN-14" value="True" style="edgeLabel;html=1;align=center;verticalAlign=middle;resizable=0;points=[];" parent="jIApgbNa99BO5ht_V9BN-13" vertex="1" connectable="0">
                    <mxGeometry x="-0.2776" y="-3" relative="1" as="geometry">
                        <mxPoint x="-42" y="-21" as="offset"/>
                    </mxGeometry>
                </mxCell>
                <mxCell id="jIApgbNa99BO5ht_V9BN-20" style="edgeStyle=orthogonalEdgeStyle;rounded=0;orthogonalLoop=1;jettySize=auto;html=1;endArrow=none;endFill=0;" parent="1" source="jIApgbNa99BO5ht_V9BN-10" target="jIApgbNa99BO5ht_V9BN-16" edge="1">
                    <mxGeometry relative="1" as="geometry"/>
                </mxCell>
                <mxCell id="jIApgbNa99BO5ht_V9BN-10" value="y1 % 100 != 0" style="strokeWidth=2;html=1;shape=mxgraph.flowchart.decision;whiteSpace=wrap;" parent="1" vertex="1">
                    <mxGeometry x="463.5" y="432" width="127" height="60" as="geometry"/>
                </mxCell>
                <mxCell id="jIApgbNa99BO5ht_V9BN-52" style="edgeStyle=orthogonalEdgeStyle;rounded=0;orthogonalLoop=1;jettySize=auto;html=1;endArrow=none;endFill=0;" parent="1" source="jIApgbNa99BO5ht_V9BN-12" target="jIApgbNa99BO5ht_V9BN-42" edge="1">
                    <mxGeometry relative="1" as="geometry">
                        <Array as="points">
                            <mxPoint x="661" y="660"/>
                            <mxPoint x="389" y="660"/>
                        </Array>
                    </mxGeometry>
                </mxCell>
                <mxCell id="jIApgbNa99BO5ht_V9BN-12" value="t1 += mass22[m1 - 1]" style="rounded=1;whiteSpace=wrap;html=1;absoluteArcSize=1;arcSize=14;strokeWidth=2;" parent="1" vertex="1">
                    <mxGeometry x="600" y="552" width="122.5" height="48" as="geometry"/>
                </mxCell>
                <mxCell id="jIApgbNa99BO5ht_V9BN-51" style="edgeStyle=orthogonalEdgeStyle;rounded=0;orthogonalLoop=1;jettySize=auto;html=1;entryX=0.5;entryY=0;entryDx=0;entryDy=0;entryPerimeter=0;endArrow=none;endFill=0;" parent="1" source="jIApgbNa99BO5ht_V9BN-16" target="jIApgbNa99BO5ht_V9BN-42" edge="1">
                    <mxGeometry relative="1" as="geometry">
                        <Array as="points">
                            <mxPoint x="216" y="660"/>
                            <mxPoint x="389" y="660"/>
                        </Array>
                    </mxGeometry>
                </mxCell>
                <mxCell id="jIApgbNa99BO5ht_V9BN-16" value="t1 += mass21[m1 - 1]" style="rounded=1;whiteSpace=wrap;html=1;absoluteArcSize=1;arcSize=14;strokeWidth=2;" parent="1" vertex="1">
                    <mxGeometry x="155" y="561" width="122.5" height="48" as="geometry"/>
                </mxCell>
                <mxCell id="jIApgbNa99BO5ht_V9BN-21" value="False" style="text;html=1;align=center;verticalAlign=middle;resizable=0;points=[];autosize=1;strokeColor=none;fillColor=none;" parent="1" vertex="1">
                    <mxGeometry x="260" y="334" width="48" height="24" as="geometry"/>
                </mxCell>
                <mxCell id="jIApgbNa99BO5ht_V9BN-22" value="False" style="text;html=1;align=center;verticalAlign=middle;resizable=0;points=[];autosize=1;strokeColor=none;fillColor=none;" parent="1" vertex="1">
                    <mxGeometry x="404" y="430" width="48" height="24" as="geometry"/>
                </mxCell>
                <mxCell id="jIApgbNa99BO5ht_V9BN-40" value="True" style="edgeStyle=orthogonalEdgeStyle;rounded=0;orthogonalLoop=1;jettySize=auto;html=1;exitX=1;exitY=0.5;exitDx=0;exitDy=0;exitPerimeter=0;entryX=0.5;entryY=0;entryDx=0;entryDy=0;entryPerimeter=0;endArrow=none;endFill=0;" parent="1" source="jIApgbNa99BO5ht_V9BN-42" target="jIApgbNa99BO5ht_V9BN-46" edge="1">
                    <mxGeometry x="-0.5598" y="18" relative="1" as="geometry">
                        <mxPoint as="offset"/>
                    </mxGeometry>
                </mxCell>
                <mxCell id="jIApgbNa99BO5ht_V9BN-41" style="edgeStyle=orthogonalEdgeStyle;rounded=0;orthogonalLoop=1;jettySize=auto;html=1;endArrow=none;endFill=0;" parent="1" source="jIApgbNa99BO5ht_V9BN-42" target="jIApgbNa99BO5ht_V9BN-48" edge="1">
                    <mxGeometry relative="1" as="geometry"/>
                </mxCell>
                <mxCell id="jIApgbNa99BO5ht_V9BN-42" value="y2 mod 4 == 0" style="strokeWidth=2;html=1;shape=mxgraph.flowchart.decision;whiteSpace=wrap;" parent="1" vertex="1">
                    <mxGeometry x="325.75" y="758" width="127" height="60" as="geometry"/>
                </mxCell>
                <mxCell id="jIApgbNa99BO5ht_V9BN-43" style="edgeStyle=orthogonalEdgeStyle;rounded=0;orthogonalLoop=1;jettySize=auto;html=1;entryX=0.5;entryY=0;entryDx=0;entryDy=0;endArrow=none;endFill=0;" parent="1" source="jIApgbNa99BO5ht_V9BN-46" target="jIApgbNa99BO5ht_V9BN-47" edge="1">
                    <mxGeometry relative="1" as="geometry"/>
                </mxCell>
                <mxCell id="jIApgbNa99BO5ht_V9BN-44" value="True" style="edgeLabel;html=1;align=center;verticalAlign=middle;resizable=0;points=[];" parent="jIApgbNa99BO5ht_V9BN-43" vertex="1" connectable="0">
                    <mxGeometry x="-0.2776" y="-3" relative="1" as="geometry">
                        <mxPoint x="-42" y="-21" as="offset"/>
                    </mxGeometry>
                </mxCell>
                <mxCell id="jIApgbNa99BO5ht_V9BN-45" style="edgeStyle=orthogonalEdgeStyle;rounded=0;orthogonalLoop=1;jettySize=auto;html=1;endArrow=none;endFill=0;" parent="1" source="jIApgbNa99BO5ht_V9BN-46" target="jIApgbNa99BO5ht_V9BN-48" edge="1">
                    <mxGeometry relative="1" as="geometry"/>
                </mxCell>
                <mxCell id="jIApgbNa99BO5ht_V9BN-46" value="y2 % 100 != 0" style="strokeWidth=2;html=1;shape=mxgraph.flowchart.decision;whiteSpace=wrap;" parent="1" vertex="1">
                    <mxGeometry x="452.75" y="854" width="127" height="60" as="geometry"/>
                </mxCell>
                <mxCell id="jIApgbNa99BO5ht_V9BN-57" style="edgeStyle=orthogonalEdgeStyle;rounded=0;orthogonalLoop=1;jettySize=auto;html=1;endArrow=none;endFill=0;" parent="1" source="jIApgbNa99BO5ht_V9BN-47" target="jIApgbNa99BO5ht_V9BN-53" edge="1">
                    <mxGeometry relative="1" as="geometry">
                        <Array as="points">
                            <mxPoint x="651" y="1068"/>
                            <mxPoint x="417" y="1068"/>
                        </Array>
                    </mxGeometry>
                </mxCell>
                <mxCell id="jIApgbNa99BO5ht_V9BN-47" value="t2 += mass22[m1 - 1]" style="rounded=1;whiteSpace=wrap;html=1;absoluteArcSize=1;arcSize=14;strokeWidth=2;" parent="1" vertex="1">
                    <mxGeometry x="589.25" y="974" width="122.5" height="48" as="geometry"/>
                </mxCell>
                <mxCell id="jIApgbNa99BO5ht_V9BN-55" style="edgeStyle=orthogonalEdgeStyle;rounded=0;orthogonalLoop=1;jettySize=auto;html=1;entryX=0.5;entryY=0;entryDx=0;entryDy=0;endArrow=none;endFill=0;" parent="1" source="jIApgbNa99BO5ht_V9BN-48" target="jIApgbNa99BO5ht_V9BN-53" edge="1">
                    <mxGeometry relative="1" as="geometry">
                        <Array as="points">
                            <mxPoint x="206" y="1068"/>
                            <mxPoint x="417" y="1068"/>
                        </Array>
                    </mxGeometry>
                </mxCell>
                <mxCell id="jIApgbNa99BO5ht_V9BN-48" value="t2 += mass21[m1 - 1]" style="rounded=1;whiteSpace=wrap;html=1;absoluteArcSize=1;arcSize=14;strokeWidth=2;" parent="1" vertex="1">
                    <mxGeometry x="144.25" y="974" width="122.5" height="48" as="geometry"/>
                </mxCell>
                <mxCell id="jIApgbNa99BO5ht_V9BN-49" value="False" style="text;html=1;align=center;verticalAlign=middle;resizable=0;points=[];autosize=1;strokeColor=none;fillColor=none;" parent="1" vertex="1">
                    <mxGeometry x="249.25" y="756" width="48" height="24" as="geometry"/>
                </mxCell>
                <mxCell id="jIApgbNa99BO5ht_V9BN-50" value="False" style="text;html=1;align=center;verticalAlign=middle;resizable=0;points=[];autosize=1;strokeColor=none;fillColor=none;" parent="1" vertex="1">
                    <mxGeometry x="393.25" y="852" width="48" height="24" as="geometry"/>
                </mxCell>
                <mxCell id="jIApgbNa99BO5ht_V9BN-59" style="edgeStyle=orthogonalEdgeStyle;rounded=0;orthogonalLoop=1;jettySize=auto;html=1;entryX=0.5;entryY=0;entryDx=0;entryDy=0;endArrow=none;endFill=0;" parent="1" source="jIApgbNa99BO5ht_V9BN-53" target="jIApgbNa99BO5ht_V9BN-58" edge="1">
                    <mxGeometry relative="1" as="geometry"/>
                </mxCell>
                <mxCell id="jIApgbNa99BO5ht_V9BN-53" value="&lt;div&gt;t1 += y1 * 365 + y1 / 4 - y1 / 100&lt;/div&gt;&lt;div&gt;&lt;span&gt;t2 += y2 * 365 + y2 / 4 - y2 / 100&lt;/span&gt;&lt;/div&gt;&lt;div&gt;&lt;span&gt;vus = |y1 / 4 - y1 / 100 - (y2 / 4 - y2 / 100)|&lt;br&gt;&lt;/span&gt;&lt;/div&gt;" style="rounded=1;whiteSpace=wrap;html=1;absoluteArcSize=1;arcSize=14;strokeWidth=2;" parent="1" vertex="1">
                    <mxGeometry x="282.25" y="1121" width="270" height="67" as="geometry"/>
                </mxCell>
                <mxCell id="jIApgbNa99BO5ht_V9BN-61" style="edgeStyle=orthogonalEdgeStyle;rounded=0;orthogonalLoop=1;jettySize=auto;html=1;entryX=0.5;entryY=0;entryDx=0;entryDy=0;endArrow=none;endFill=0;" parent="1" source="jIApgbNa99BO5ht_V9BN-58" target="jIApgbNa99BO5ht_V9BN-60" edge="1">
                    <mxGeometry relative="1" as="geometry"/>
                </mxCell>
                <mxCell id="jIApgbNa99BO5ht_V9BN-58" value="&lt;div&gt;vus = |y1 / 4 - y1 / 100 - (y2 / 4 - y2 / 100)|&lt;br&gt;&lt;/div&gt;&lt;div&gt;ans1 = |t1 - t2|&lt;/div&gt;&lt;div&gt;ans2 = ans / 365&lt;/div&gt;&lt;div&gt;ans3 = (nas1 mod 365) - vus&lt;/div&gt;" style="rounded=1;whiteSpace=wrap;html=1;absoluteArcSize=1;arcSize=14;strokeWidth=2;" parent="1" vertex="1">
                    <mxGeometry x="282.25" y="1212" width="270" height="72" as="geometry"/>
                </mxCell>
                <mxCell id="jIApgbNa99BO5ht_V9BN-63" style="edgeStyle=orthogonalEdgeStyle;rounded=0;orthogonalLoop=1;jettySize=auto;html=1;entryX=0.5;entryY=0;entryDx=0;entryDy=0;entryPerimeter=0;endArrow=none;endFill=0;" parent="1" source="jIApgbNa99BO5ht_V9BN-60" target="jIApgbNa99BO5ht_V9BN-62" edge="1">
                    <mxGeometry relative="1" as="geometry"/>
                </mxCell>
                <mxCell id="jIApgbNa99BO5ht_V9BN-60" value="всього днів&lt;br&gt;ans1&lt;br&gt;повних років і днів&lt;br&gt;ans2, ans3" style="shape=parallelogram;html=1;strokeWidth=2;perimeter=parallelogramPerimeter;whiteSpace=wrap;rounded=1;arcSize=12;size=0.23;" parent="1" vertex="1">
                    <mxGeometry x="311.75" y="1320" width="211" height="72" as="geometry"/>
                </mxCell>
                <mxCell id="jIApgbNa99BO5ht_V9BN-62" value="end" style="strokeWidth=2;html=1;shape=mxgraph.flowchart.start_2;whiteSpace=wrap;" parent="1" vertex="1">
                    <mxGeometry x="367.25" y="1428" width="100" height="48" as="geometry"/>
                </mxCell>
            </root>
        </mxGraphModel>
    </diagram>
</mxfile>